<?xml version="1.0" encoding="utf-8"?>
<!-- Generator: Adobe Illustrator 22.1.0, SVG Export Plug-In . SVG Version: 6.00 Build 0)  -->
<svg version="1.1" xmlns="http://www.w3.org/2000/svg" xmlns:xlink="http://www.w3.org/1999/xlink" x="0px" y="0px"
	 viewBox="0 0 2654 2582.9" style="enable-background:new 0 0 2654 2582.9;" xml:space="preserve">
<style type="text/css">
	.st0{opacity:0.46;fill:#6BC3F9;}
	.st1{opacity:0.9;}
	.st2{fill:#F4F4F4;}
</style>
<g id="Capa_1">
	
		<rect x="705.9" y="118.4" transform="matrix(-1.836970e-16 1 -1 -1.836970e-16 2613.4319 -587.4465)" class="st0" width="1789.1" height="1789.1"/>
	
		<rect x="193" y="631.3" transform="matrix(-1.836970e-16 1 -1 -1.836970e-16 2613.4319 438.3103)" class="st0" width="1789.1" height="1789.1"/>
	
		<rect x="448.9" y="375.5" transform="matrix(-1.836970e-16 1 -1 -1.836970e-16 2613.4319 -73.4077)" class="st1" width="1789.1" height="1789.1"/>
</g>
<g id="Capa_3">
	<g>
		<path class="st2" d="M1109.3,801.1c125.1,0,223.1,99.7,223.1,259.3s-98.8,261.1-223.1,261.1c-74.4,0-127.9-33.6-156-78v70.7H798.3
			v-671h155.1V880C981.4,834.7,1036.7,801.1,1109.3,801.1z M1063,936.3c-58,0-110.6,44.4-110.6,125.1c0,80.7,52.6,125.1,110.6,125.1
			c58.9,0,111.5-45.3,111.5-126C1174.6,979.8,1122,936.3,1063,936.3z"/>
		<path class="st2" d="M1644.3,1321.6c-148.7,0-261.2-99.7-261.2-260.2c0-160.5,115.2-260.2,263-260.2c148.7,0,263,99.7,263,260.2
			C1909.1,1221.9,1793,1321.6,1644.3,1321.6z M1644.3,1187.4c55.3,0,107-40.8,107-126c0-86.1-50.8-126-105.2-126
			c-56.2,0-105.2,39.9-105.2,126C1540.9,1146.6,1588.1,1187.4,1644.3,1187.4z"/>
		<path class="st2" d="M1028.6,1885.8c-148.7,0-261.2-99.7-261.2-260.2s115.2-260.2,263-260.2c148.7,0,263,99.7,263,260.2
			S1177.3,1885.8,1028.6,1885.8z M1028.6,1751.6c55.3,0,107-40.8,107-126c0-86.1-50.8-126-105.2-126c-56.2,0-105.2,39.9-105.2,126
			C925.2,1710.8,972.4,1751.6,1028.6,1751.6z"/>
		<path class="st2" d="M1578.1,1738l-81.6,140.5h-167.8l166.8-258.4l-171.4-247.5h174.1l97,139.6l81.6-139.6h167.8l-169.6,254.8
			l174.1,251.2h-174.1L1578.1,1738z"/>
	</g>
</g>
<g id="Capa_2">
</g>
</svg>
